# ProBuilder 5.2.3
# https://unity3d.com/unity/features/worldbuilding/probuilder
# 30.08.2024 20:33:04

mtllib ./Billboard_(1).mtl
o Billboard (1)

g Billboard (1)
v -0.5 -0.5 0.5
v -0.5 0.5 0.5
v 0.5 0.5 0.5
v 0.5 -0.5 0.5
v 0.5 -0.4999998 0.5000045
v 0.5 -0.4999998 -0.5000045
v -0.5 -0.5000001 -0.5000045
v -0.5 -0.5000001 0.4999915
v 0.5 0.5000001 -0.4999915
v -0.5 0.4999999 -0.5000045
v 0.5 0.5000001 0.5000045
v -0.5 0.4999999 0.5000045

vt 0 0
vt 0 1
vt 1 1
vt 1 0

vn 0 0 1
vn 2.384186E-07 -1 0
vn 6.496905E-06 6.496907E-06 -1
vn -2.68221E-07 1 0
vn -1 0 0
vn 1 0 0

usemtl Mat2
f 4/4/1 3/3/1 2/2/1 1/1/1
f 7/4/3 10/3/3 9/2/3 6/1/3

usemtl BillboardDefault
f 8/4/2 7/3/2 6/2/2 5/1/2
f 10/4/4 12/3/4 11/2/4 9/1/4
f 10/4/5 7/3/5 8/2/5 12/1/5
f 11/4/6 5/3/6 6/2/6 9/1/6

